<svg id="Layer_1" data-name="Layer 1" xmlns="http://www.w3.org/2000/svg" viewBox="0 0 680 680"><defs><style>.cls-1{fill:#607b53;}.cls-2{fill:#546949;}.cls-3{fill:#6e8c61;}.cls-4{fill:#e9e8d3;}.cls-5{fill:#fcc62d;}.cls-6{fill:none;}.cls-7{fill:#e4af18;}.cls-8{fill:#d19d18;}</style></defs><title>Artboard 2 copy</title><rect class="cls-1" x="163.77" width="366.83" height="643.08"/><rect class="cls-2" x="132.07" width="366.83" height="643.08"/><rect class="cls-1" x="95.84" width="366.83" height="643.08"/><rect class="cls-3" x="55.08" width="366.83" height="643.08"/><circle class="cls-4" cx="123.02" cy="67.93" r="31.7"/><circle class="cls-4" cx="349.45" cy="67.93" r="31.7"/><circle class="cls-4" cx="123.02" cy="579.68" r="31.7"/><circle class="cls-4" cx="349.45" cy="579.68" r="31.7"/><path class="cls-4" d="M114,244.16V144.52a4.13,4.13,0,0,1,4.13-4.13h11.28a50.25,50.25,0,0,0,35.54-14.72h0a50.24,50.24,0,0,0,14.71-35.53V72.06a4.13,4.13,0,0,1,4.13-4.13H295.51a4.13,4.13,0,0,1,4.13,4.13V94a46.35,46.35,0,0,0,13.58,32.8h0A46.39,46.39,0,0,0,346,140.39h8.36a4.13,4.13,0,0,1,4.13,4.13V248.43a4.13,4.13,0,0,1-7,3l-18.71-18a142,142,0,0,0-195-1.9l-17,15.7A4.13,4.13,0,0,1,114,244.16Z"/><path class="cls-4" d="M114,402.41v99.64a4.13,4.13,0,0,0,4.13,4.13h11.28a50.25,50.25,0,0,1,35.54,14.72h0a50.24,50.24,0,0,1,14.71,35.53v18.08a4.13,4.13,0,0,0,4.13,4.13H295.51a4.13,4.13,0,0,0,4.13-4.13v-22a46.38,46.38,0,0,1,13.58-32.8h0A46.42,46.42,0,0,1,346,506.18h8.36a4.13,4.13,0,0,0,4.13-4.13V398.14a4.13,4.13,0,0,0-7-3l-18.71,18a142,142,0,0,1-195,1.91l-17-15.7A4.13,4.13,0,0,0,114,402.41Z"/><path class="cls-4" d="M254.35,285.31h13.59l.69-1.38a23.45,23.45,0,0,1,40.06-3.15h0l5.75,45.94a54.37,54.37,0,0,1-15.66,45.35h0c-17.08,32.46-61.36,37.76-85.63,10.26l-17.67-20H172.83L114,434.76h0a227.77,227.77,0,0,1-1.76-200.12L114,231l63.4,67.93H200l5.2-15.58c8-24,42.18-23.1,48.94,1.24Z"/><ellipse class="cls-5" cx="550.94" cy="293.99" rx="109.06" ry="87.52"/><path class="cls-6" d="M444.9,355.25h0c0-.16-.08-.32-.12-.48v1C444.82,355.57,444.85,355.4,444.9,355.25Z"/><path class="cls-6" d="M444.9,396.09h0c0-.16-.08-.32-.12-.48v.95C444.82,396.41,444.85,396.24,444.9,396.09Z"/><path class="cls-6" d="M444.9,477.77h0c0-.16-.08-.32-.12-.48v.95C444.82,478.09,444.85,477.93,444.9,477.77Z"/><path class="cls-6" d="M444.9,436.93h0c0-.16-.08-.32-.12-.48v.95C444.82,437.25,444.85,437.09,444.9,436.93Z"/><path class="cls-6" d="M444.9,518.61h0c0-.16-.08-.32-.12-.48v1C444.82,518.93,444.85,518.77,444.9,518.61Z"/><path class="cls-7" d="M657.18,315.17c-.07-.25-.12-.51-.2-.76-11.46,38.48-54.57,67.09-106,67.09s-94.57-28.61-106-67.09c0,.15-.08.31-.12.47v39.89c0,.16.07.32.12.48.72,2.4,1.56,4.77,2.51,7.09h0A81.19,81.19,0,0,0,459,381.86l.17.21a96.08,96.08,0,0,0,16.76,16.24c.15.12.3.24.46.35q3,2.31,6.32,4.41l.58.36a113.41,113.41,0,0,0,14,7.59l.77.35c2.35,1.05,4.77,2,7.23,2.94l1.17.43c2.47.88,5,1.71,7.55,2.45l.81.22q3.78,1.06,7.66,1.91l.74.16c2.63.56,5.31,1,8,1.41l1.52.22c2.66.36,5.36.65,8.09.85l1.41.08c2.87.18,5.75.3,8.67.3s5.81-.12,8.67-.3L561,422c2.73-.2,5.43-.49,8.1-.85l1.51-.22c2.7-.39,5.38-.85,8-1.41l.73-.16c2.59-.56,5.15-1.2,7.66-1.91l.81-.22c2.57-.74,5.08-1.57,7.55-2.45l1.18-.43q3.69-1.37,7.23-2.94l.76-.35a114.26,114.26,0,0,0,14-7.59l.57-.36q3.27-2.1,6.32-4.41l.47-.35a96.08,96.08,0,0,0,16.76-16.24l.16-.21a80.91,80.91,0,0,0,11.58-19.51h0a71.92,71.92,0,0,0,2.51-7.09c.07-.23.14-.47.2-.7Z"/><path class="cls-8" d="M654.47,362.35a80.91,80.91,0,0,1-11.58,19.51l-.16.21A96.08,96.08,0,0,1,626,398.31l-.47.35q-3,2.31-6.32,4.41l-.57.36a114.26,114.26,0,0,1-14,7.59l-.76.35q-3.54,1.58-7.23,2.94l-1.18.43c-2.47.88-5,1.71-7.55,2.45l-.81.22c-2.51.71-5.07,1.35-7.66,1.91l-.73.16c-2.64.56-5.32,1-8,1.41l-1.51.22c-2.67.36-5.37.65-8.1.85l-1.41.08c-2.86.18-5.75.3-8.67.3s-5.8-.12-8.67-.3l-1.41-.08c-2.73-.2-5.43-.49-8.09-.85l-1.52-.22c-2.7-.39-5.38-.85-8-1.41l-.74-.16q-3.88-.84-7.66-1.91l-.81-.22c-2.56-.74-5.08-1.57-7.55-2.45l-1.17-.43c-2.46-.91-4.88-1.89-7.23-2.94l-.77-.35a113.41,113.41,0,0,1-14-7.59l-.58-.36q-3.27-2.1-6.32-4.41c-.16-.11-.31-.23-.46-.35a96.08,96.08,0,0,1-16.76-16.24l-.17-.21a81.19,81.19,0,0,1-11.57-19.51h0c-1-2.32-1.79-4.69-2.51-7.09h0c0,.15-.08.32-.12.47v39.89c0,.16.07.32.12.48.72,2.4,1.56,4.77,2.51,7.09h0A81.19,81.19,0,0,0,459,422.7l.17.21a96.08,96.08,0,0,0,16.76,16.24c.15.12.3.24.46.35q3,2.31,6.32,4.41l.58.36a113.41,113.41,0,0,0,14,7.59l.77.35c2.35,1.05,4.77,2,7.23,2.94l1.17.43c2.47.88,5,1.71,7.55,2.45l.81.22q3.78,1.06,7.66,1.91l.74.17c2.63.55,5.31,1,8,1.4l1.52.22c2.66.36,5.36.65,8.09.85l1.41.08c2.87.18,5.75.3,8.67.3s5.81-.12,8.67-.3l1.41-.08c2.73-.2,5.43-.49,8.1-.85l1.51-.22c2.7-.39,5.38-.85,8-1.4l.73-.17c2.59-.56,5.15-1.2,7.66-1.91l.81-.22c2.57-.74,5.08-1.57,7.55-2.45l1.18-.43q3.69-1.36,7.23-2.94l.76-.35a114.26,114.26,0,0,0,14-7.59l.57-.36q3.27-2.1,6.32-4.41l.47-.35a96.08,96.08,0,0,0,16.76-16.24l.16-.21a80.91,80.91,0,0,0,11.58-19.51h0a71.92,71.92,0,0,0,2.51-7.09c.07-.23.14-.47.2-.7V356c-.07-.25-.12-.51-.2-.76h0a71.92,71.92,0,0,1-2.51,7.09Z"/><path class="cls-7" d="M654.47,403.19a80.91,80.91,0,0,1-11.58,19.51l-.16.21A96.08,96.08,0,0,1,626,439.15l-.47.35q-3,2.31-6.32,4.41l-.57.36a114.26,114.26,0,0,1-14,7.59l-.76.35q-3.54,1.57-7.23,2.94l-1.18.43c-2.47.88-5,1.71-7.55,2.45l-.81.22c-2.51.71-5.07,1.35-7.66,1.91l-.73.17c-2.64.55-5.32,1-8,1.4l-1.51.22c-2.67.36-5.37.65-8.1.85l-1.41.08c-2.86.18-5.75.3-8.67.3s-5.8-.12-8.67-.3l-1.41-.08c-2.73-.2-5.43-.49-8.09-.85l-1.52-.22c-2.7-.39-5.38-.85-8-1.4l-.74-.17q-3.88-.84-7.66-1.91L514,458c-2.56-.74-5.08-1.57-7.55-2.45l-1.17-.43c-2.46-.91-4.88-1.89-7.23-2.94l-.77-.35a113.41,113.41,0,0,1-14-7.59l-.58-.36q-3.27-2.1-6.32-4.41c-.16-.11-.31-.23-.46-.35a96.08,96.08,0,0,1-16.76-16.24l-.17-.21a81.19,81.19,0,0,1-11.57-19.51h0c-1-2.32-1.79-4.69-2.51-7.09h0c0,.15-.08.32-.12.47v39.89c0,.16.07.32.12.48.72,2.4,1.56,4.77,2.51,7.09h0A81.19,81.19,0,0,0,459,463.54l.17.21A95.37,95.37,0,0,0,475.92,480c.15.12.3.24.46.35q3,2.31,6.32,4.41l.58.37a114.7,114.7,0,0,0,14,7.58l.77.35c2.35,1.06,4.77,2,7.23,2.94l1.17.43q3.7,1.33,7.55,2.45l.81.22q3.78,1.07,7.66,1.91l.74.17c2.63.55,5.31,1,8,1.4l1.52.22c2.66.36,5.36.65,8.09.85l1.41.08c2.87.19,5.75.3,8.67.3s5.81-.11,8.67-.3l1.41-.08c2.73-.2,5.43-.49,8.1-.85l1.51-.22c2.7-.39,5.38-.85,8-1.4l.73-.17c2.59-.56,5.15-1.2,7.66-1.91l.81-.22c2.57-.74,5.08-1.56,7.55-2.45l1.18-.43c2.46-.91,4.87-1.88,7.23-2.94l.76-.35a115.58,115.58,0,0,0,14-7.58l.57-.37q3.27-2.1,6.32-4.41L626,480a95.37,95.37,0,0,0,16.76-16.24l.16-.21A80.91,80.91,0,0,0,654.47,444h0a71.92,71.92,0,0,0,2.51-7.09c.07-.23.14-.47.2-.7V396.86c-.07-.26-.12-.52-.2-.77h0a71.92,71.92,0,0,1-2.51,7.09Z"/><path class="cls-8" d="M654.47,444a80.91,80.91,0,0,1-11.58,19.51l-.16.21A95.37,95.37,0,0,1,626,480l-.47.35q-3,2.31-6.32,4.41l-.57.37a115.58,115.58,0,0,1-14,7.58l-.76.35c-2.36,1.06-4.77,2-7.23,2.94l-1.18.43c-2.47.89-5,1.71-7.55,2.45l-.81.22c-2.51.71-5.07,1.35-7.66,1.91l-.73.17c-2.64.55-5.32,1-8,1.4l-1.51.22c-2.67.36-5.37.65-8.1.85l-1.41.08c-2.86.19-5.75.3-8.67.3s-5.8-.11-8.67-.3l-1.41-.08c-2.73-.2-5.43-.49-8.09-.85l-1.52-.22c-2.7-.39-5.38-.85-8-1.4l-.74-.17q-3.88-.84-7.66-1.91l-.81-.22q-3.84-1.11-7.55-2.45l-1.17-.43c-2.46-.91-4.88-1.88-7.23-2.94l-.77-.35a114.7,114.7,0,0,1-14-7.58l-.58-.37q-3.27-2.1-6.32-4.41c-.16-.11-.31-.23-.46-.35a95.37,95.37,0,0,1-16.76-16.24l-.17-.21A81.19,81.19,0,0,1,447.42,444h0c-1-2.32-1.79-4.69-2.51-7.09h0c0,.16-.08.32-.12.47v39.89c0,.16.07.32.12.48.72,2.4,1.56,4.77,2.51,7.09h0A81.19,81.19,0,0,0,459,504.38l.17.21a95.37,95.37,0,0,0,16.76,16.24l.46.36q3,2.29,6.32,4.4l.58.37a113.35,113.35,0,0,0,14,7.58l.77.36c2.35,1.05,4.77,2,7.23,2.93l1.17.43q3.7,1.34,7.55,2.45l.81.22q3.78,1.07,7.66,1.91l.74.17c2.63.55,5.31,1,8,1.41l1.52.21c2.66.36,5.36.65,8.09.85l1.41.08c2.87.19,5.75.31,8.67.31s5.81-.12,8.67-.31l1.41-.08c2.73-.2,5.43-.49,8.1-.85l1.51-.21c2.7-.4,5.38-.86,8-1.41l.73-.17c2.59-.56,5.15-1.2,7.66-1.91l.81-.22c2.57-.74,5.08-1.56,7.55-2.45l1.18-.43c2.46-.91,4.87-1.88,7.23-2.93l.76-.36a114.21,114.21,0,0,0,14-7.58l.57-.37q3.27-2.1,6.32-4.4l.47-.36a95.37,95.37,0,0,0,16.76-16.24l.16-.21a80.91,80.91,0,0,0,11.58-19.51h0a71.92,71.92,0,0,0,2.51-7.09c.07-.23.14-.46.2-.7V437.7c-.07-.26-.12-.52-.2-.77h0a71.92,71.92,0,0,1-2.51,7.09Z"/><path class="cls-7" d="M654.47,484.87a80.91,80.91,0,0,1-11.58,19.51l-.16.21A95.37,95.37,0,0,1,626,520.83l-.47.36q-3,2.29-6.32,4.4l-.57.37a114.21,114.21,0,0,1-14,7.58l-.76.36c-2.36,1.05-4.77,2-7.23,2.93l-1.18.43c-2.47.89-5,1.71-7.55,2.45l-.81.22c-2.51.71-5.07,1.35-7.66,1.91l-.73.17c-2.64.55-5.32,1-8,1.41l-1.51.21c-2.67.36-5.37.65-8.1.85l-1.41.08c-2.86.19-5.75.31-8.67.31s-5.8-.12-8.67-.31l-1.41-.08c-2.73-.2-5.43-.49-8.09-.85l-1.52-.21c-2.7-.4-5.38-.86-8-1.41l-.74-.17q-3.88-.84-7.66-1.91l-.81-.22q-3.84-1.11-7.55-2.45l-1.17-.43c-2.46-.91-4.88-1.88-7.23-2.93l-.77-.36a113.35,113.35,0,0,1-14-7.58l-.58-.37q-3.27-2.1-6.32-4.4l-.46-.36a95.37,95.37,0,0,1-16.76-16.24l-.17-.21a81.19,81.19,0,0,1-11.57-19.51h0c-1-2.32-1.79-4.69-2.51-7.09h0c0,.16-.08.32-.12.47v39.89c0,.16.07.32.12.48.72,2.4,1.56,4.77,2.51,7.09h0A81.19,81.19,0,0,0,459,545.22l.17.21a95.37,95.37,0,0,0,16.76,16.24l.46.36q3,2.29,6.32,4.41l.58.36a114.75,114.75,0,0,0,14,7.59l.77.35c2.35,1,4.77,2,7.23,2.93l1.17.43q3.7,1.33,7.55,2.45l.81.23c2.52.7,5.07,1.34,7.66,1.9l.74.17c2.63.55,5.31,1,8,1.41.51.07,1,.15,1.52.21,2.66.36,5.36.65,8.09.85l1.41.09c2.87.18,5.75.3,8.67.3s5.81-.12,8.67-.3l1.41-.09c2.73-.2,5.43-.49,8.1-.85l1.51-.21c2.7-.4,5.38-.86,8-1.41l.73-.17c2.59-.56,5.15-1.2,7.66-1.9l.81-.23c2.57-.74,5.08-1.56,7.55-2.45l1.18-.43c2.46-.91,4.87-1.88,7.23-2.93l.76-.35a115.63,115.63,0,0,0,14-7.59l.57-.36q3.27-2.12,6.32-4.41l.47-.36a95.37,95.37,0,0,0,16.76-16.24l.16-.21a80.91,80.91,0,0,0,11.58-19.51h0a71.92,71.92,0,0,0,2.51-7.09c.07-.23.14-.46.2-.7V478.54c-.07-.26-.12-.52-.2-.77h0a71.92,71.92,0,0,1-2.51,7.09Z"/><path class="cls-8" d="M654.47,525.71a80.91,80.91,0,0,1-11.58,19.51l-.16.21A95.37,95.37,0,0,1,626,561.67l-.47.36q-3,2.29-6.32,4.41l-.57.36a115.63,115.63,0,0,1-14,7.59l-.76.35c-2.36,1-4.77,2-7.23,2.93l-1.18.43c-2.47.89-5,1.71-7.55,2.45l-.81.23c-2.51.7-5.07,1.34-7.66,1.9l-.73.17c-2.64.55-5.32,1-8,1.41l-1.51.21c-2.67.36-5.37.65-8.1.85l-1.41.09c-2.86.18-5.75.3-8.67.3s-5.8-.12-8.67-.3l-1.41-.09c-2.73-.2-5.43-.49-8.09-.85-.51-.06-1-.14-1.52-.21-2.7-.4-5.38-.86-8-1.41l-.74-.17c-2.59-.56-5.14-1.2-7.66-1.9l-.81-.23q-3.84-1.11-7.55-2.45l-1.17-.43c-2.46-.91-4.88-1.88-7.23-2.93l-.77-.35a114.75,114.75,0,0,1-14-7.59l-.58-.36q-3.27-2.12-6.32-4.41l-.46-.36a95.37,95.37,0,0,1-16.76-16.24l-.17-.21a81.19,81.19,0,0,1-11.57-19.51h0c-1-2.32-1.79-4.69-2.51-7.09h0c0,.16-.08.32-.12.48V559c11.27,38.7,54.5,67.53,106.16,67.53s95.09-29,106.24-67.8V519.38c-.07-.26-.12-.52-.2-.77h0a71.92,71.92,0,0,1-2.51,7.09Z"/><path class="cls-7" d="M654.47,566.55a80.91,80.91,0,0,1-11.58,19.51l-.16.21A95.37,95.37,0,0,1,626,602.51l-.47.36q-3,2.29-6.32,4.41l-.57.36a115.63,115.63,0,0,1-14,7.59l-.76.35c-2.36,1-4.77,2-7.23,2.93l-1.18.43c-2.47.89-5,1.71-7.55,2.46l-.81.22c-2.51.7-5.07,1.34-7.66,1.9l-.73.17c-2.64.55-5.32,1-8,1.41l-1.51.21c-2.67.36-5.37.65-8.1.85l-1.41.09c-2.86.18-5.75.3-8.67.3s-5.8-.12-8.67-.3l-1.41-.09c-2.73-.2-5.43-.49-8.09-.85-.51-.06-1-.14-1.52-.21-2.7-.4-5.38-.86-8-1.41l-.74-.17c-2.59-.56-5.14-1.2-7.66-1.9l-.81-.22q-3.84-1.12-7.55-2.46l-1.17-.43c-2.46-.91-4.88-1.88-7.23-2.93l-.77-.35a114.75,114.75,0,0,1-14-7.59l-.58-.36q-3.27-2.12-6.32-4.41l-.46-.36a95.37,95.37,0,0,1-16.76-16.24l-.17-.21a81.19,81.19,0,0,1-11.57-19.51h0q-1.43-3.48-2.51-7.09h0c0,.16-.08.32-.12.48v39.89c0,.15.07.32.12.47q1.08,3.62,2.51,7.09h0A81.25,81.25,0,0,0,459,626.91c.06.06.11.13.17.2a95.37,95.37,0,0,0,16.76,16.24l.46.36q3,2.29,6.32,4.41l.58.36a113.41,113.41,0,0,0,14,7.59l.77.35c2.35,1.05,4.77,2,7.23,2.94l1.17.42c2.47.89,5,1.72,7.55,2.46l.81.22c2.52.7,5.07,1.34,7.66,1.9l.74.17c2.63.55,5.31,1,8,1.41.51.07,1,.15,1.52.21,2.66.36,5.36.65,8.09.85l1.41.09c2.87.18,5.75.3,8.67.3s5.81-.12,8.67-.3L561,667c2.73-.2,5.43-.49,8.1-.85l1.51-.21c2.7-.4,5.38-.86,8-1.41l.73-.17c2.59-.56,5.15-1.2,7.66-1.9l.81-.22c2.57-.74,5.08-1.57,7.55-2.46l1.18-.42c2.46-.92,4.87-1.89,7.23-2.94l.76-.35a114.26,114.26,0,0,0,14-7.59l.57-.36q3.27-2.11,6.32-4.41l.47-.36a95.37,95.37,0,0,0,16.76-16.24l.16-.2a81,81,0,0,0,11.58-19.52h0a71,71,0,0,0,2.51-7.09c.07-.23.14-.46.2-.69V560.22c-.07-.26-.12-.52-.2-.77h0a71,71,0,0,1-2.51,7.09Z"/><ellipse class="cls-5" cx="387.35" cy="428.18" rx="109.06" ry="87.52"/><path class="cls-6" d="M281.31,489.44h0l-.12-.48v1C281.23,489.76,281.26,489.6,281.31,489.44Z"/><path class="cls-6" d="M281.31,530.28h0l-.12-.48v1C281.23,530.6,281.26,530.44,281.31,530.28Z"/><path class="cls-6" d="M281.31,612h0l-.12-.47v1C281.23,612.28,281.26,612.12,281.31,612Z"/><path class="cls-6" d="M281.31,571.12h0l-.12-.48v1C281.23,571.44,281.26,571.28,281.31,571.12Z"/><path class="cls-6" d="M281.31,652.8h0l-.12-.47v.95C281.23,653.12,281.26,653,281.31,652.8Z"/><path class="cls-7" d="M493.6,449.37c-.08-.26-.13-.52-.2-.77-11.47,38.48-54.58,67.09-106,67.09s-94.57-28.61-106-67.09c-.05.15-.08.32-.12.47V489l.12.48c.72,2.4,1.56,4.77,2.51,7.09h0a80.91,80.91,0,0,0,11.58,19.51l.16.21a96.08,96.08,0,0,0,16.76,16.24l.46.35q3.06,2.31,6.32,4.41c.19.13.39.24.58.36a113.54,113.54,0,0,0,14,7.59l.76.35c2.35,1.06,4.77,2,7.23,2.94l1.17.43c2.47.88,5,1.71,7.55,2.45l.82.22q3.76,1.06,7.66,1.91l.73.17c2.63.55,5.31,1,8,1.4l1.51.22c2.67.36,5.37.65,8.09.85l1.42.08c2.86.18,5.74.3,8.66.3s5.81-.12,8.67-.3l1.41-.08c2.73-.2,5.43-.49,8.1-.85l1.51-.22c2.71-.39,5.39-.85,8-1.4l.73-.17c2.59-.56,5.15-1.2,7.66-1.91l.81-.22c2.57-.74,5.08-1.57,7.56-2.45l1.17-.43c2.46-.91,4.87-1.88,7.23-2.94l.76-.35a113.54,113.54,0,0,0,14-7.59l.57-.36q3.27-2.1,6.33-4.41l.46-.35a96.08,96.08,0,0,0,16.76-16.24l.16-.21a80.91,80.91,0,0,0,11.58-19.51h0a74.66,74.66,0,0,0,2.52-7.09c.06-.23.13-.47.2-.7Z"/><path class="cls-8" d="M490.88,496.54a80.91,80.91,0,0,1-11.58,19.51l-.16.21a96.08,96.08,0,0,1-16.76,16.24l-.46.35q-3.06,2.31-6.33,4.41l-.57.36a113.54,113.54,0,0,1-14,7.59l-.76.35c-2.36,1.06-4.77,2-7.23,2.94l-1.17.43c-2.48.88-5,1.71-7.56,2.45l-.81.22c-2.51.71-5.07,1.35-7.66,1.91l-.73.17c-2.63.55-5.31,1-8,1.4l-1.51.22c-2.67.36-5.37.65-8.1.85l-1.41.08c-2.86.18-5.75.3-8.67.3s-5.8-.12-8.66-.3l-1.42-.08c-2.72-.2-5.42-.49-8.09-.85l-1.51-.22c-2.71-.39-5.39-.85-8-1.4l-.73-.17q-3.9-.84-7.66-1.91l-.82-.22c-2.56-.74-5.08-1.57-7.55-2.45l-1.17-.43c-2.46-.91-4.88-1.88-7.23-2.94l-.76-.35a113.54,113.54,0,0,1-14-7.59c-.19-.12-.39-.23-.58-.36q-3.25-2.1-6.32-4.41l-.46-.35a96.08,96.08,0,0,1-16.76-16.24l-.16-.21a80.91,80.91,0,0,1-11.58-19.51h0c-.95-2.32-1.79-4.69-2.51-7.09h0c-.05.16-.08.32-.12.47V529.8l.12.48c.72,2.4,1.56,4.77,2.51,7.09h0a80.91,80.91,0,0,0,11.58,19.51l.16.21a95.37,95.37,0,0,0,16.76,16.24l.46.35q3.06,2.31,6.32,4.41l.58.37a113.49,113.49,0,0,0,14,7.58l.76.36c2.35,1.05,4.77,2,7.23,2.93l1.17.43q3.71,1.34,7.55,2.45l.82.22q3.76,1.06,7.66,1.91l.73.17c2.63.55,5.31,1,8,1.41l1.51.21c2.67.36,5.37.65,8.09.85l1.42.08c2.86.19,5.74.3,8.66.3s5.81-.11,8.67-.3l1.41-.08c2.73-.2,5.43-.49,8.1-.85l1.51-.21c2.71-.4,5.39-.86,8-1.41l.73-.17c2.59-.56,5.15-1.2,7.66-1.91l.81-.22c2.57-.74,5.08-1.56,7.56-2.45l1.17-.43c2.46-.91,4.87-1.88,7.23-2.93l.76-.36a113.49,113.49,0,0,0,14-7.58l.57-.37q3.27-2.1,6.33-4.41l.46-.35a95.37,95.37,0,0,0,16.76-16.24l.16-.21a80.91,80.91,0,0,0,11.58-19.51h0a74.66,74.66,0,0,0,2.52-7.09c.06-.23.13-.46.2-.7V490.21c-.08-.26-.13-.52-.2-.77h0a74.66,74.66,0,0,1-2.52,7.09Z"/><path class="cls-7" d="M490.88,537.38a80.91,80.91,0,0,1-11.58,19.51l-.16.21a95.37,95.37,0,0,1-16.76,16.24l-.46.35q-3.06,2.31-6.33,4.41l-.57.37a113.49,113.49,0,0,1-14,7.58l-.76.36c-2.36,1.05-4.77,2-7.23,2.93l-1.17.43c-2.48.89-5,1.71-7.56,2.45l-.81.22c-2.51.71-5.07,1.35-7.66,1.91l-.73.17c-2.63.55-5.31,1-8,1.41l-1.51.21c-2.67.36-5.37.65-8.1.85l-1.41.08c-2.86.19-5.75.3-8.67.3s-5.8-.11-8.66-.3l-1.42-.08c-2.72-.2-5.42-.49-8.09-.85l-1.51-.21c-2.71-.4-5.39-.86-8-1.41l-.73-.17q-3.9-.84-7.66-1.91l-.82-.22q-3.84-1.11-7.55-2.45l-1.17-.43c-2.46-.91-4.88-1.88-7.23-2.93l-.76-.36a113.49,113.49,0,0,1-14-7.58l-.58-.37q-3.25-2.1-6.32-4.41l-.46-.35a95.37,95.37,0,0,1-16.76-16.24l-.16-.21a80.91,80.91,0,0,1-11.58-19.51h0c-.95-2.32-1.79-4.69-2.51-7.09h0c-.05.16-.08.32-.12.47v39.89l.12.48c.72,2.4,1.56,4.77,2.51,7.09h0a80.91,80.91,0,0,0,11.58,19.51l.16.21a95.37,95.37,0,0,0,16.76,16.24l.46.36q3.06,2.3,6.32,4.4l.58.37a113.49,113.49,0,0,0,14,7.58l.76.36c2.35,1,4.77,2,7.23,2.93l1.17.43q3.71,1.33,7.55,2.45l.82.23c2.51.7,5.06,1.34,7.66,1.9l.73.17c2.63.55,5.31,1,8,1.41l1.51.21c2.67.36,5.37.65,8.09.85l1.42.09c2.86.18,5.74.3,8.66.3s5.81-.12,8.67-.3l1.41-.09c2.73-.2,5.43-.49,8.1-.85l1.51-.21c2.71-.4,5.39-.86,8-1.41l.73-.17c2.59-.56,5.15-1.2,7.66-1.9l.81-.23c2.57-.74,5.08-1.56,7.56-2.45l1.17-.43c2.46-.91,4.87-1.88,7.23-2.93l.76-.36a113.49,113.49,0,0,0,14-7.58l.57-.37q3.27-2.1,6.33-4.4l.46-.36a95.37,95.37,0,0,0,16.76-16.24l.16-.21a80.91,80.91,0,0,0,11.58-19.51h0a74.66,74.66,0,0,0,2.52-7.09c.06-.23.13-.46.2-.7V531.05c-.08-.26-.13-.52-.2-.77h0a74.66,74.66,0,0,1-2.52,7.09Z"/><path class="cls-8" d="M490.88,578.22a80.91,80.91,0,0,1-11.58,19.51l-.16.21a95.37,95.37,0,0,1-16.76,16.24l-.46.36q-3.06,2.3-6.33,4.4l-.57.37a113.49,113.49,0,0,1-14,7.58l-.76.36c-2.36,1-4.77,2-7.23,2.93l-1.17.43c-2.48.89-5,1.71-7.56,2.45l-.81.23c-2.51.7-5.07,1.34-7.66,1.9l-.73.17c-2.63.55-5.31,1-8,1.41l-1.51.21c-2.67.36-5.37.65-8.1.85l-1.41.09c-2.86.18-5.75.3-8.67.3s-5.8-.12-8.66-.3l-1.42-.09c-2.72-.2-5.42-.49-8.09-.85l-1.51-.21c-2.71-.4-5.39-.86-8-1.41l-.73-.17c-2.6-.56-5.15-1.2-7.66-1.9l-.82-.23q-3.84-1.11-7.55-2.45l-1.17-.43c-2.46-.91-4.88-1.88-7.23-2.93l-.76-.36a113.49,113.49,0,0,1-14-7.58l-.58-.37q-3.25-2.1-6.32-4.4l-.46-.36a95.37,95.37,0,0,1-16.76-16.24l-.16-.21a80.91,80.91,0,0,1-11.58-19.51h0c-.95-2.32-1.79-4.69-2.51-7.09h0c-.05.16-.08.32-.12.48v39.89l.12.47q1.08,3.62,2.51,7.09h0a80.91,80.91,0,0,0,11.58,19.51l.16.21A95.37,95.37,0,0,0,312.33,655l.46.36q3.06,2.29,6.32,4.41l.58.36a114.89,114.89,0,0,0,14,7.59l.76.35c2.35,1,4.77,2,7.23,2.93l1.17.43q3.71,1.34,7.55,2.46l.82.22c2.51.7,5.06,1.34,7.66,1.9l.73.17c2.63.55,5.31,1,8,1.41.5.07,1,.15,1.51.21,2.67.36,5.37.65,8.09.85l1.42.09c2.86.18,5.74.3,8.66.3s5.81-.12,8.67-.3l1.41-.09c2.73-.2,5.43-.49,8.1-.85l1.51-.21c2.71-.4,5.39-.86,8-1.41l.73-.17c2.59-.56,5.15-1.2,7.66-1.9l.81-.22c2.57-.75,5.08-1.57,7.56-2.46L433,671c2.46-.91,4.87-1.88,7.23-2.93l.76-.35a114.89,114.89,0,0,0,14-7.59l.57-.36q3.27-2.12,6.33-4.41l.46-.36a95.37,95.37,0,0,0,16.76-16.24l.16-.21a80.91,80.91,0,0,0,11.58-19.51h0A73.69,73.69,0,0,0,493.4,612c.06-.23.13-.46.2-.7V571.89c-.08-.26-.13-.52-.2-.77h0a74.66,74.66,0,0,1-2.52,7.09Z"/></svg>