<?xml version="1.0" encoding="utf-8"?>
<!-- Generator: Adobe Illustrator 22.1.0, SVG Export Plug-In . SVG Version: 6.00 Build 0)  -->
<svg version="1.1" id="Layer_1" xmlns="http://www.w3.org/2000/svg" xmlns:xlink="http://www.w3.org/1999/xlink" x="0px" y="0px"
	 viewBox="0 0 680 680" style="enable-background:new 0 0 680 680;" xml:space="preserve">
<style type="text/css">
	.st0{fill:#1CB580;}
	.st1{fill:none;}
</style>
<g>
	<g>
		<rect x="250.5" y="253.6" class="st0" width="66.3" height="11.2"/>
	</g>
	<g>
		<rect x="250.5" y="301.6" class="st0" width="156.4" height="11.2"/>
	</g>
	<g>
		<rect x="250.5" y="349.7" class="st0" width="156.4" height="11.2"/>
	</g>
	<g>
		<rect x="250.5" y="397.8" class="st0" width="106.9" height="11.2"/>
	</g>
	<g>
		<rect x="250.5" y="445.9" class="st0" width="91" height="11.2"/>
	</g>
	<g>
		<path class="st0" d="M450.7,479.3c-2.3,3.2-6.8,3.5-9.6,0.8l-23-23c-2.2-2.2-2.2-5.7,0-7.9l0,0c2.2-2.2,5.7-2.2,7.9,0l18.9,18.9
			l33.9-47.1c1.8-2.5,5.3-3.1,7.8-1.3v0c2.5,1.8,3.1,5.3,1.3,7.8L450.7,479.3z"/>
	</g>
	<g>
		<path class="st1" d="M369.3,455.2c0-42.7,34.7-77.4,77.4-77.4c3.3,0,6.5,0.3,9.7,0.7V266.2l-82.6-0.1l-0.4-86.7H198.7v339.8h204.5
			C382.8,505.2,369.3,481.7,369.3,455.2z"/>
		<polygon class="st1" points="452.1,255 384.6,184.4 384.9,254.9 		"/>
		<path class="st1" d="M467.6,393.2c-3.6-1.2-7.3-2.1-11.2-2.7c-3.2-0.5-6.4-0.8-9.7-0.8c-36.1,0-65.5,29.4-65.5,65.5
			c0,31.3,22,57.5,51.4,63.9c4.6,1,9.3,1.6,14.1,1.6c7.3,0,14.3-1.3,20.9-3.5c25.9-8.7,44.6-33.2,44.6-62
			C512.2,426.4,493.5,401.9,467.6,393.2z"/>
		<path class="st0" d="M467.6,380.8V255.1l0.1-0.1l-83.1-86.8l-0.1,0.1l0-0.2H187.5v362.2h241.1c5.8,1.4,11.8,2.2,18.1,2.2
			s12.3-0.8,18.1-2.2h2.8v-0.7c32.5-9.1,56.5-39,56.5-74.4S500.1,389.9,467.6,380.8z M452.1,255l-67.2-0.1l-0.3-70.4L452.1,255z
			 M198.7,519.1V179.4h174.6l0.4,86.7l82.6,0.1v112.4c-3.2-0.4-6.4-0.7-9.7-0.7c-42.7,0-77.4,34.7-77.4,77.4
			c0,26.5,13.5,50,33.9,63.9H198.7z M467.6,517.2c-6.6,2.2-13.6,3.5-20.9,3.5c-4.9,0-9.6-0.6-14.1-1.6
			c-29.4-6.5-51.4-32.7-51.4-63.9c0-36.1,29.4-65.5,65.5-65.5c3.3,0,6.5,0.3,9.7,0.8c3.9,0.6,7.6,1.5,11.2,2.7
			c25.9,8.7,44.6,33.2,44.6,62C512.2,484,493.5,508.5,467.6,517.2z"/>
	</g>
</g>
</svg>
