<svg id="Layer_1" data-name="Layer 1" xmlns="http://www.w3.org/2000/svg" viewBox="0 0 680 680"><defs><style>.cls-1{fill:#1cb580;}</style></defs><title>Artboard 2 copy</title><path class="cls-1" d="M1.69,545.89h0A14.81,14.81,0,0,1,7.2,525.68l130.39-74.57a168.23,168.23,0,0,1,128.22-15.79l99.65,28a48.15,48.15,0,0,1,19.46,10.3,47,47,0,0,1,8.55,60.08c-8.89,14.19-25.26,22-42,22H252.19a14.81,14.81,0,0,1-14.81-14.81h0a14.81,14.81,0,0,1,14.81-14.81H352.3c6.75,0,15.15-4.78,17.58-11.08a17.28,17.28,0,0,0-11.45-22.86l-100.64-28.3a138.46,138.46,0,0,0-105.49,13L21.9,551.39A14.81,14.81,0,0,1,1.69,545.89Z"/><path class="cls-1" d="M368.45,423.66A107.27,107.27,0,1,1,475.72,316.4,107.39,107.39,0,0,1,368.45,423.66Zm0-184.92a77.66,77.66,0,1,0,77.66,77.66A77.74,77.74,0,0,0,368.45,238.74Z"/><path class="cls-1" d="M493.58,215.21a79.86,79.86,0,1,1,79.86-79.86A79.94,79.94,0,0,1,493.58,215.21Zm0-130.1a50.24,50.24,0,1,0,50.24,50.24A50.3,50.3,0,0,0,493.58,85.11Z"/><path class="cls-1" d="M70.37,676.21h0a14.82,14.82,0,0,1,2.73-20.76l26.08-20a128.47,128.47,0,0,1,102.23-24.22L367.06,643a58.7,58.7,0,0,0,43.3-11L640.44,461a16.66,16.66,0,0,0-17.09-28.42L485.43,498.13a14.82,14.82,0,0,1-19.73-7h0a14.81,14.81,0,0,1,7-19.73l137.93-65.54a46.32,46.32,0,0,1,61.69,22c9.7,20.22,2.37,44.6-15.63,58L428,655.81a88.67,88.67,0,0,1-66,16.37L195.82,640.3a98.58,98.58,0,0,0-78.61,18.62l-26.07,20A14.81,14.81,0,0,1,70.37,676.21Z"/></svg>