<svg id="Layer_1" data-name="Layer 1" xmlns="http://www.w3.org/2000/svg" viewBox="0 0 680 680"><defs><style>.cls-1{fill:#5d647f;}.cls-2{fill:#ff4f19;}.cls-3{fill:#ffd100;}.cls-4{fill:#b8bac0;}.cls-5{fill:#8a8895;}.cls-6{fill:#f5cf08;}.cls-7{fill:#ff9500;}</style></defs><title>Artboard 2 copy 2</title><rect class="cls-1" x="0.75" y="107" width="679.25" height="495.39" rx="29.91" ry="29.91"/><circle class="cls-2" cx="445.07" cy="265.32" r="61.29"/><circle class="cls-3" cx="542.11" cy="265.32" r="61.29"/><path class="cls-4" d="M244.09,403.21h63.39a20.13,20.13,0,0,1,20.13,20.13v22.53A18.63,18.63,0,0,1,309,464.5H244.09a18.63,18.63,0,0,1-18.63-18.63v-24A18.63,18.63,0,0,1,244.09,403.21Z"/><rect class="cls-4" x="87.57" y="403.21" width="102.14" height="61.29" rx="18.63" ry="18.63"/><rect class="cls-4" x="501.25" y="403.21" width="102.14" height="61.29" rx="18.63" ry="18.63"/><rect class="cls-4" x="363.36" y="403.21" width="102.14" height="61.29" rx="18.63" ry="18.63"/><rect class="cls-5" x="87.57" y="500.25" width="229.82" height="30.64" rx="13.59" ry="13.59"/><rect class="cls-5" x="337.82" y="500.25" width="117.46" height="30.64" rx="13.59" ry="13.59"/><rect class="cls-6" x="87.57" y="193.82" width="168.54" height="132.79" rx="8.08" ry="8.08"/><rect class="cls-7" x="128.43" y="193.82" width="25.54" height="132.79"/><rect class="cls-7" x="192.27" y="191.27" width="25.54" height="102.14" transform="translate(447.38 37.3) rotate(90)"/><rect class="cls-7" x="192.27" y="227.02" width="25.54" height="102.14" transform="translate(483.13 73.05) rotate(90)"/></svg>