<svg id="Layer_1" data-name="Layer 1" xmlns="http://www.w3.org/2000/svg" viewBox="0 0 680 680"><defs><style>.cls-1{fill:#1cb580;}</style></defs><title>Artboard 1</title><path class="cls-1" d="M526.23,249.13c-87.66,0-153.77-34.3-153.77-79.79s66.11-79.78,153.77-79.78S680,123.86,680,169.34,613.89,249.13,526.23,249.13Zm0-131.88c-72.16,0-126.07,27.5-126.07,52.09s53.91,52.1,126.07,52.1,126.08-27.51,126.08-52.1S598.39,117.25,526.23,117.25Z"/><path class="cls-1" d="M526.23,347.22c-74.63,0-133.64-24.86-149.53-60.32a13.9,13.9,0,0,1,12.78-19.46h0a14,14,0,0,1,12.65,8.32c10.33,22.08,60,43.77,124.1,43.77S640,297.84,650.33,275.76A14,14,0,0,1,663,267.44h0a13.9,13.9,0,0,1,12.77,19.46C659.87,322.36,600.86,347.22,526.23,347.22Z"/><path class="cls-1" d="M526.23,427c-74.63,0-133.64-24.86-149.53-60.31a13.9,13.9,0,0,1,12.78-19.47h0a14,14,0,0,1,12.65,8.33c10.33,22.07,60,43.76,124.1,43.76S640,377.62,650.33,355.55A14,14,0,0,1,663,347.22h0a13.9,13.9,0,0,1,12.77,19.47C659.87,402.14,600.86,427,526.23,427Z"/><path class="cls-1" d="M526.23,506.79c-74.63,0-133.64-24.86-149.53-60.32A13.91,13.91,0,0,1,389.48,427h0a14,14,0,0,1,12.65,8.33c10.33,22.08,60,43.76,124.1,43.76S640,457.41,650.33,435.33A14,14,0,0,1,663,427h0a13.9,13.9,0,0,1,12.77,19.47C659.87,481.93,600.86,506.79,526.23,506.79Z"/><path class="cls-1" d="M154.69,417.85C67,417.85.92,383.55.92,338.06S67,258.28,154.69,258.28s153.77,34.3,153.77,79.78S242.35,417.85,154.69,417.85Zm0-131.88c-72.16,0-126.08,27.51-126.08,52.09s53.92,52.1,126.08,52.1,126.07-27.5,126.07-52.1S226.85,286,154.69,286Z"/><path class="cls-1" d="M154.69,515.94c-74.63,0-133.64-24.86-149.53-60.31a13.9,13.9,0,0,1,12.77-19.47h0a14,14,0,0,1,12.66,8.33c10.33,22.07,60,43.76,124.1,43.76s113.77-21.69,124.1-43.76a14,14,0,0,1,12.65-8.33h0a13.9,13.9,0,0,1,12.78,19.47C288.33,491.08,229.32,515.94,154.69,515.94Z"/><path class="cls-1" d="M154.69,595.73c-74.63,0-133.64-24.86-149.53-60.32a13.9,13.9,0,0,1,12.77-19.47h0a14,14,0,0,1,12.66,8.33c10.33,22.08,60,43.76,124.1,43.76s113.77-21.68,124.1-43.76a14,14,0,0,1,12.65-8.33h0a13.91,13.91,0,0,1,12.78,19.47C288.33,570.87,229.32,595.73,154.69,595.73Z"/><path class="cls-1" d="M154.69,675.51c-74.63,0-133.64-24.86-149.53-60.32a13.9,13.9,0,0,1,12.77-19.46h0a14,14,0,0,1,12.66,8.32c10.33,22.08,60,43.77,124.1,43.77s113.77-21.69,124.1-43.77a14,14,0,0,1,12.65-8.32h0a13.9,13.9,0,0,1,12.78,19.46C288.33,650.65,229.32,675.51,154.69,675.51Z"/><path class="cls-1" d="M526.23,586.57c-74.63,0-133.64-24.86-149.53-60.32a13.9,13.9,0,0,1,12.78-19.46h0a14,14,0,0,1,12.65,8.32c10.33,22.08,60,43.77,124.1,43.77S640,537.19,650.33,515.11A14,14,0,0,1,663,506.79h0a13.9,13.9,0,0,1,12.77,19.46C659.87,561.71,600.86,586.57,526.23,586.57Z"/><path class="cls-1" d="M526.23,679.87c-74.63,0-133.64-24.86-149.53-60.32a13.9,13.9,0,0,1,12.78-19.47h0a14,14,0,0,1,12.65,8.33c10.33,22.08,60,43.76,124.1,43.76S640,630.49,650.33,608.41A14,14,0,0,1,663,600.08h0a13.9,13.9,0,0,1,12.77,19.47C659.87,655,600.86,679.87,526.23,679.87Z"/></svg>