<svg id="Layer_1" data-name="Layer 1" xmlns="http://www.w3.org/2000/svg" viewBox="0 0 680 680"><defs><style>.cls-1{fill:#98375e;}.cls-2{fill:#c05372;}.cls-3{fill:#fdcc9b;}.cls-4{fill:#fcbc85;}.cls-5{fill:#342620;}.cls-6{fill:#f2f2f2;}.cls-7{fill:#fdc591;}.cls-8{fill:#fbb380;}.cls-9{fill:#c05371;}</style></defs><title>Artboard 2</title><path class="cls-1" d="M100.52,680c0-107.06,112.31-193.85,250.86-193.85S602.24,572.94,602.24,680"/><path class="cls-2" d="M409.29,491.56c0,24.58-25.84,48.56-57.85,48.56s-58.06-24-58.06-48.56l52.93-8.76a27.67,27.67,0,0,1,9,0Z"/><path class="cls-3" d="M310.25,466.26h83.89a0,0,0,0,1,0,0v33.6a24.46,24.46,0,0,1-24.46,24.46h-35a24.46,24.46,0,0,1-24.46-24.46v-33.6a0,0,0,0,1,0,0Z"/><circle class="cls-4" cx="508.66" cy="295.68" r="46.7"/><circle class="cls-4" cx="188.46" cy="295.68" r="46.7"/><path class="cls-3" d="M500.9,351.43h0a147.16,147.16,0,0,1-72.06,95.25l-6.45,3.57L287,453.88l-13.45-7.68c-34.12-19.39-62.67-51.1-72.93-89L199,351.43V222.84L260,122.67l243.66,63.62Z"/><path class="cls-5" d="M198.61,351.86v-99.1a47.85,47.85,0,0,1,17-36.62l21.43-18a51.58,51.58,0,0,0,18.37-39.47V144.75s115.45,69.78,213.7,53.35c6.06-1,13.64,2.47,16.86,7.69,7.73,12.53,14.46,33.86,14.46,45.93v99.43a.4.4,0,0,0,.6.34l13.69-8.43a10.2,10.2,0,0,0,4.43-5.74l1.15-3.74a507.85,507.85,0,0,0,22.09-148.12v-8.78A168.15,168.15,0,0,0,492.73,57C463.39,28.05,418.49,3,351.57,5.33c0,0-99.82-8.68-157,63.62a152,152,0,0,0-32.54,94.31V265.17a117.7,117.7,0,0,0,26.61,74.54Z"/><circle class="cls-5" cx="269" cy="275.99" r="23.01"/><circle class="cls-6" cx="259.53" cy="262.46" r="6.77"/><circle class="cls-5" cx="436.85" cy="275.99" r="23.01"/><circle class="cls-6" cx="428.73" cy="262.46" r="6.77"/><path class="cls-5" d="M293.53,237.48h0a6,6,0,0,1-5.61-3.72,10.16,10.16,0,0,0-9.44-6.44H262.23a10.16,10.16,0,0,0-9.44,6.44,6,6,0,0,1-5.61,3.72h0a6.09,6.09,0,0,1-5.68-8.32,22.37,22.37,0,0,1,20.73-14h16.25a22.38,22.38,0,0,1,20.73,14A6.09,6.09,0,0,1,293.53,237.48Z"/><path class="cls-5" d="M458.67,237.48h0a6,6,0,0,1-5.6-3.72,10.17,10.17,0,0,0-9.45-6.44H427.38a10.17,10.17,0,0,0-9.45,6.44,6,6,0,0,1-5.6,3.72h0a6.09,6.09,0,0,1-5.68-8.32,22.36,22.36,0,0,1,20.73-14h16.24a22.36,22.36,0,0,1,20.73,14A6.09,6.09,0,0,1,458.67,237.48Z"/><path class="cls-7" d="M365.06,362.69h-27a18.68,18.68,0,0,1-17.9-13.32h0a3.26,3.26,0,0,1,2.18-4.05l1.55-.46A3.25,3.25,0,0,1,328,347h0a10.56,10.56,0,0,0,10.12,7.53h27A10.56,10.56,0,0,0,375.17,347h0a3.24,3.24,0,0,1,4-2.18l1.56.46a3.25,3.25,0,0,1,2.17,4.05h0A18.67,18.67,0,0,1,365.06,362.69Z"/><path class="cls-8" d="M368.32,404.65h-32a47.1,47.1,0,0,1-27-8.51h0a3.38,3.38,0,0,1-.83-4.72l2.32-3.32a3.4,3.4,0,0,1,4.72-.83h0a36.26,36.26,0,0,0,20.8,6.55h32a32.86,32.86,0,0,0,19.2-6.19,3.41,3.41,0,0,1,4.57.48l2.68,3.07a3.37,3.37,0,0,1-.49,4.93A43.7,43.7,0,0,1,368.32,404.65Z"/><path class="cls-5" d="M443.22,435.84a57.74,57.74,0,0,1-51.1,30.85h0a222.08,222.08,0,0,1-79.65,0h0a57.74,57.74,0,0,1-51.1-30.85h0l1.06.14c75.25,0,52.72-16.13,91.49-16.38,37.65-.24,24.36,16.57,88.56,16.57l.74-.33Z"/><path class="cls-9" d="M192.49,530l1.58-1a227,227,0,0,1,35.61-18.52h0V679.92H192.42Z"/><polygon class="cls-9" points="244.29 679.92 234.69 679.92 234.69 508.1 244.29 504.68 244.29 679.92"/><polygon class="cls-9" points="186.23 679.92 176.63 679.92 176.63 540.76 186.23 534.14 186.23 679.92"/><path class="cls-9" d="M510,530l-1.58-1a227.41,227.41,0,0,0-35.61-18.52h0V679.92H510Z"/><polygon class="cls-9" points="458.17 679.92 467.77 679.92 467.77 508.1 458.17 504.68 458.17 679.92"/><polygon class="cls-9" points="516.22 679.92 525.83 679.92 525.83 540.76 516.22 534.14 516.22 679.92"/></svg>