<?xml version="1.0" encoding="utf-8"?>
<!-- Generator: Adobe Illustrator 22.1.0, SVG Export Plug-In . SVG Version: 6.00 Build 0)  -->
<svg version="1.1" id="Layer_1" xmlns="http://www.w3.org/2000/svg" xmlns:xlink="http://www.w3.org/1999/xlink" x="0px" y="0px"
	 viewBox="0 0 680 680" style="enable-background:new 0 0 680 680;" xml:space="preserve">
<style type="text/css">
	.st0{fill:#1CB580;}
	.st1{fill:none;}
</style>
<g>
	<g>
		<path class="st0" d="M452.7,265.8c-53.2,0-93.3-20.8-93.3-48.4c0-27.6,40.1-48.4,93.3-48.4s93.3,20.8,93.3,48.4
			C546,245,505.9,265.8,452.7,265.8z M452.7,185.8c-43.8,0-76.5,16.7-76.5,31.6c0,14.9,32.7,31.6,76.5,31.6
			c43.8,0,76.5-16.7,76.5-31.6C529.2,202.5,496.5,185.8,452.7,185.8z"/>
	</g>
	<g>
		<path class="st0" d="M452.7,325.3c-45.3,0-81.1-15.1-90.7-36.6c-2.5-5.5,1.7-11.8,7.8-11.8h0c3.3,0,6.3,2,7.7,5.1
			c6.3,13.4,36.4,26.6,75.3,26.6c38.9,0,69-13.2,75.3-26.6c1.4-3,4.3-5.1,7.7-5.1h0c6.1,0,10.2,6.3,7.8,11.8
			C533.8,310.2,498,325.3,452.7,325.3z"/>
	</g>
	<g>
		<path class="st0" d="M452.7,373.7c-45.3,0-81.1-15.1-90.7-36.6c-2.5-5.5,1.7-11.8,7.8-11.8h0c3.3,0,6.3,2,7.7,5.1
			c6.3,13.4,36.4,26.6,75.3,26.6c38.9,0,69-13.2,75.3-26.6c1.4-3,4.3-5.1,7.7-5.1h0c6.1,0,10.2,6.3,7.8,11.8
			C533.8,358.6,498,373.7,452.7,373.7z"/>
	</g>
	<g>
		<path class="st0" d="M452.7,422.1c-45.3,0-81.1-15.1-90.7-36.6c-2.5-5.5,1.7-11.8,7.8-11.8h0c3.3,0,6.3,2,7.7,5.1
			c6.3,13.4,36.4,26.6,75.3,26.6c38.9,0,69-13.2,75.3-26.6c1.4-3,4.3-5.1,7.7-5.1h0c6.1,0,10.2,6.3,7.8,11.8
			C533.8,407,498,422.1,452.7,422.1z"/>
	</g>
	<g>
		<path class="st0" d="M227.3,368.2c-53.2,0-93.3-20.8-93.3-48.4c0-27.6,40.1-48.4,93.3-48.4s93.3,20.8,93.3,48.4
			C320.6,347.3,280.5,368.2,227.3,368.2z M227.3,288.1c-43.8,0-76.5,16.7-76.5,31.6c0,14.9,32.7,31.6,76.5,31.6
			c43.8,0,76.5-16.7,76.5-31.6C303.8,304.8,271.1,288.1,227.3,288.1z"/>
	</g>
	<g>
		<path class="st0" d="M227.3,427.7c-45.3,0-81.1-15.1-90.7-36.6c-2.5-5.5,1.7-11.8,7.8-11.8h0c3.3,0,6.3,2,7.7,5.1
			c6.3,13.4,36.4,26.6,75.3,26.6c38.9,0,69-13.2,75.3-26.6c1.4-3,4.3-5.1,7.7-5.1h0c6.1,0,10.2,6.3,7.8,11.8
			C308.4,412.6,272.6,427.7,227.3,427.7z"/>
	</g>
	<g>
		<path class="st0" d="M227.3,476.1c-45.3,0-81.1-15.1-90.7-36.6c-2.5-5.5,1.7-11.8,7.8-11.8h0c3.3,0,6.3,2,7.7,5.1
			c6.3,13.4,36.4,26.6,75.3,26.6c38.9,0,69-13.2,75.3-26.6c1.4-3,4.3-5.1,7.7-5.1h0c6.1,0,10.2,6.3,7.8,11.8
			C308.4,461,272.6,476.1,227.3,476.1z"/>
	</g>
	<g>
		<path class="st0" d="M227.3,524.5c-45.3,0-81.1-15.1-90.7-36.6c-2.5-5.5,1.7-11.8,7.8-11.8h0c3.3,0,6.3,2,7.7,5.1
			c6.3,13.4,36.4,26.6,75.3,26.6c38.9,0,69-13.2,75.3-26.6c1.4-3,4.3-5.1,7.7-5.1h0c6.1,0,10.2,6.3,7.8,11.8
			C308.4,509.4,272.6,524.5,227.3,524.5z"/>
	</g>
	<g>
		<path class="st0" d="M452.7,470.5c-45.3,0-81.1-15.1-90.7-36.6c-2.5-5.5,1.7-11.8,7.8-11.8h0c3.3,0,6.3,2,7.7,5.1
			c6.3,13.4,36.4,26.6,75.3,26.6c38.9,0,69-13.2,75.3-26.6c1.4-3,4.3-5.1,7.7-5.1h0c6.1,0,10.2,6.3,7.8,11.8
			C533.8,455.4,498,470.5,452.7,470.5z"/>
	</g>
	<g>
		<path class="st0" d="M452.7,527.1c-45.3,0-81.1-15.1-90.7-36.6c-2.5-5.5,1.7-11.8,7.8-11.8h0c3.3,0,6.3,2,7.7,5.1
			c6.3,13.4,36.4,26.6,75.3,26.6c38.9,0,69-13.2,75.3-26.6c1.4-3,4.3-5.1,7.7-5.1h0c6.1,0,10.2,6.3,7.8,11.8
			C533.8,512.1,498,527.1,452.7,527.1z"/>
	</g>
</g>
</svg>
