<svg id="Layer_1" data-name="Layer 1" xmlns="http://www.w3.org/2000/svg" viewBox="0 0 680 680"><defs><style>.cls-1{fill:#606060;}</style></defs><title>Artboard 1</title><path class="cls-1" d="M309.72,437.55c-119.25,0-216.28-97-216.28-216.28S190.47,5,309.72,5,526,102,526,221.27,429,437.55,309.72,437.55Zm0-418.93c-111.74,0-202.64,90.91-202.64,202.65S198,423.92,309.72,423.92,512.37,333,512.37,221.27,421.46,18.62,309.72,18.62Z"/><path class="cls-1" d="M360.28,453.58l7.88-2.25A25.13,25.13,0,0,1,398.73,467l58.6,164.08a25.13,25.13,0,0,1-17.05,32.69L409,672.33a25.13,25.13,0,0,1-31.22-19.15L342.58,482.83A25.12,25.12,0,0,1,360.28,453.58Z"/><path class="cls-1" d="M224.36,200.63,200.9,197q7.95-17.78,21.47-27.24a50.84,50.84,0,0,1,29.81-9.45q17.86,0,25.34,9.67t3.29,24.58a51.28,51.28,0,0,1-7.41,15.21,91.43,91.43,0,0,1-14.78,16q-6.81,5.94-21.54,16.78t-19.64,14.82q-4.91,4-9.64,8.41h44.28L241,288.58H163.29a74.8,74.8,0,0,1,10.57-17.92,115,115,0,0,1,15.21-15.82q8.51-7.32,30.26-23.62,16.38-12.37,20.83-16.12a74.47,74.47,0,0,0,11.68-11.77,28.84,28.84,0,0,0,4.79-9q1.81-6.43-.85-10.45t-8.51-4q-5.93,0-11.63,4.49T224.36,200.63Z"/><path class="cls-1" d="M293.57,215.19l11-22.32q36.3-14.12,59.26-32.85h15.26L316,288.58H290.81L334.27,200a153.83,153.83,0,0,1-20.69,9.24A141.73,141.73,0,0,1,293.57,215.19Z"/><path class="cls-1" d="M404.06,270.19,413.39,237H379.92l6.45-22.93h33.46l9.34-33.2h22.31l-9.33,33.2H475.7L469.26,237H435.71l-9.34,33.21Z"/></svg>