<svg id="Layer_1" data-name="Layer 1" xmlns="http://www.w3.org/2000/svg" viewBox="0 0 680 680"><defs><style>.cls-1{fill:#1cb580;}.cls-2{fill:none;}</style></defs><title>Artboard 2</title><rect class="cls-1" x="156.35" y="162.18" width="123.01" height="20.79"/><rect class="cls-1" x="156.35" y="251.41" width="290.21" height="20.79"/><rect class="cls-1" x="156.35" y="340.63" width="290.21" height="20.79"/><rect class="cls-1" x="156.35" y="429.86" width="198.43" height="20.79"/><rect class="cls-1" x="156.35" y="519.09" width="168.92" height="20.79"/><path class="cls-1" d="M527.8,581.08A11.73,11.73,0,0,1,510,582.51l-42.65-42.66a10.4,10.4,0,0,1,0-14.7h0a10.39,10.39,0,0,1,14.7,0l35.12,35.13,63-87.36a10.41,10.41,0,0,1,14.51-2.35h0A10.4,10.4,0,0,1,597,485.09Z"/><path class="cls-2" d="M376.82,536.41c0-79.17,64.41-143.58,143.58-143.58a144.11,144.11,0,0,1,18,1.25V185.55L385,185.34l-.76-160.9h-324V655.09H439.71A143.51,143.51,0,0,1,376.82,536.41Z"/><polygon class="cls-2" points="530.36 164.75 405.06 33.85 405.68 164.58 530.36 164.75"/><path class="cls-2" d="M559.17,421.26A121.34,121.34,0,0,0,398.8,536.41c0,58.05,40.91,106.65,95.39,118.68a119.32,119.32,0,0,0,65-3.52C607.25,635.34,642,589.9,642,536.41S607.25,437.49,559.17,421.26Z"/><path class="cls-1" d="M559.17,398.29V165.11l.16-.16L405.08,3.81l-.16.15V3.65H39.4V675.88H486.87a138.54,138.54,0,0,0,67.07,0h5.23v-1.34c60.37-17,104.82-72.4,104.82-138.13S619.54,415.27,559.17,398.29ZM530.36,164.75l-124.68-.17-.62-130.73ZM60.19,655.09V24.44h324l.76,160.9,153.39.21V394.08a144.11,144.11,0,0,0-18-1.25c-79.17,0-143.58,64.41-143.58,143.58a143.51,143.51,0,0,0,62.89,118.68Zm499-3.52a119.32,119.32,0,0,1-65,3.52c-54.48-12-95.39-60.63-95.39-118.68A121.77,121.77,0,0,1,559.17,421.26C607.25,437.49,642,482.92,642,536.41S607.25,635.34,559.17,651.57Z"/></svg>