<?xml version="1.0" encoding="utf-8"?>
<!-- Generator: Adobe Illustrator 22.1.0, SVG Export Plug-In . SVG Version: 6.00 Build 0)  -->
<svg version="1.1" id="Layer_1" xmlns="http://www.w3.org/2000/svg" xmlns:xlink="http://www.w3.org/1999/xlink" x="0px" y="0px"
	 viewBox="0 0 680 680" style="enable-background:new 0 0 680 680;" xml:space="preserve">
<style type="text/css">
	.st0{fill:#1CB580;}
	.st1{fill:none;}
</style>
<g>
	<g>
		<path class="st0" d="M167.4,450.3L167.4,450.3c-2.3-4-0.9-9.2,3.1-11.5l74-42.3c21.9-12.5,48.4-15.8,72.7-9l56.5,15.9
			c4.1,1.1,7.9,3,11,5.8c9.9,9,11.6,23.3,4.9,34.1c-5,8.1-14.3,12.5-23.8,12.5l-56.3,0c-4.6,0-8.4-3.8-8.4-8.4l0,0
			c0-4.6,3.8-8.4,8.4-8.4h56.8c3.8,0,8.6-2.7,10-6.3c1-2.5,0.9-5.3-0.3-7.7c-1.2-2.6-3.4-4.4-6.2-5.2l-57.1-16.1
			c-20-5.6-41.8-2.9-59.9,7.4l-74,42.3C174.9,455.8,169.7,454.4,167.4,450.3z"/>
	</g>
	<g>
		<path class="st0" d="M375.5,381c-33.6,0-60.9-27.3-60.9-60.9s27.3-60.9,60.9-60.9s60.9,27.3,60.9,60.9S409.1,381,375.5,381z
			 M375.5,276.1c-24.3,0-44.1,19.8-44.1,44.1c0,24.3,19.8,44.1,44.1,44.1s44.1-19.8,44.1-44.1C419.6,295.8,399.8,276.1,375.5,276.1z
			"/>
	</g>
	<g>
		<path class="st0" d="M446.5,262.7c-25,0-45.3-20.3-45.3-45.3c0-25,20.3-45.3,45.3-45.3c25,0,45.3,20.3,45.3,45.3
			C491.8,242.4,471.5,262.7,446.5,262.7z M446.5,188.9c-15.7,0-28.5,12.8-28.5,28.5c0,15.7,12.8,28.5,28.5,28.5
			c15.7,0,28.5-12.8,28.5-28.5C475,201.7,462.2,188.9,446.5,188.9z"/>
	</g>
	<g>
		<path class="st0" d="M206.4,524.3L206.4,524.3c-2.8-3.7-2.1-9,1.5-11.8l14.8-11.4c16.5-12.6,37.6-17.6,58-13.7l94,18
			c8.4,1.3,17.5-1,24.6-6.2l130.5-97c4.1-3.1,5-9,2-13.2c-2.7-3.7-7.6-4.9-11.7-3l-78.3,37.2c-4.2,2-9.2,0.2-11.2-4h0
			c-2-4.2-0.2-9.2,4-11.2l78.3-37.2c12.8-6.1,28.6-0.9,35,12.5c5.5,11.5,1.3,25.3-8.9,32.9l-129.8,96.5
			c-10.7,7.9-24.3,11.3-37.5,9.3l-94.3-18.1c-15.7-3-31.9,0.8-44.6,10.6l-14.8,11.4C214.5,528.7,209.2,528,206.4,524.3z"/>
	</g>
</g>
</svg>
