<?xml version="1.0" encoding="utf-8"?>
<!-- Generator: Adobe Illustrator 22.1.0, SVG Export Plug-In . SVG Version: 6.00 Build 0)  -->
<svg version="1.1" id="Layer_1" xmlns="http://www.w3.org/2000/svg" xmlns:xlink="http://www.w3.org/1999/xlink" x="0px" y="0px"
	 viewBox="0 0 258 100" style="enable-background:new 0 0 258 100;" xml:space="preserve">
<style type="text/css">
	.st0{fill:#FFFFFF;}
</style>
<g>
	<g>
		<path class="st0" d="M51.2,58.5L39.1,70.6l12.1,12.1l12.1-12.1L51.2,58.5z M51.3,62.8l7.8,7.8l-7.8,7.8L51.3,62.8z"/>
		<polygon class="st0" points="41.2,28.3 48.3,21.2 48.3,47.7 41.2,31.1 		"/>
		<path class="st0" d="M28.1,26.4c-11.2,0-20.2,9.1-20.2,20.2s9.1,20.2,20.2,20.2s20.2-9.1,20.2-20.2S39.3,26.4,28.1,26.4z
			 M28.1,60.1c-7.4,0-13.4-6-13.4-13.4s6-13.4,13.4-13.4s13.4,6,13.4,13.4S35.5,60.1,28.1,60.1z"/>
		<polygon class="st0" points="60.8,28.3 53.7,21.2 53.7,47.7 60.8,31.1 		"/>
		<path class="st0" d="M73.9,26.4c-11.2,0-20.2,9.1-20.2,20.2s9.1,20.2,20.2,20.2s20.2-9.1,20.2-20.2S85.1,26.4,73.9,26.4z
			 M73.9,60.1c-7.4,0-13.4-6-13.4-13.4s6-13.4,13.4-13.4s13.4,6,13.4,13.4S81.3,60.1,73.9,60.1z"/>
	</g>
	<g>
		<path class="st0" d="M120.3,32.1v21.1c0,1.5,0,3.3,0.1,4.5h-2.8l-0.1-3h-0.1c-1,1.9-3.1,3.4-5.9,3.4c-4.2,0-7.5-3.6-7.5-8.9
			c0-5.8,3.6-9.4,7.8-9.4c2.7,0,4.5,1.3,5.3,2.7h0.1V32.1H120.3z M117.2,47.3c0-0.4,0-0.9-0.1-1.3c-0.5-2-2.2-3.7-4.6-3.7
			c-3.3,0-5.2,2.9-5.2,6.7c0,3.5,1.7,6.4,5.1,6.4c2.1,0,4.1-1.4,4.6-3.8c0.1-0.4,0.1-0.9,0.1-1.4V47.3z"/>
		<path class="st0" d="M135.2,57.7l-0.3-2.2h-0.1c-1,1.4-2.8,2.6-5.3,2.6c-3.5,0-5.3-2.5-5.3-5c0-4.2,3.7-6.5,10.5-6.5v-0.4
			c0-1.4-0.4-4-4-4c-1.6,0-3.3,0.5-4.5,1.3l-0.7-2.1c1.4-0.9,3.5-1.5,5.7-1.5c5.3,0,6.6,3.6,6.6,7.1v6.5c0,1.5,0.1,3,0.3,4.2H135.2z
			 M134.8,48.8c-3.5-0.1-7.4,0.5-7.4,3.9c0,2.1,1.4,3,3,3c2.3,0,3.7-1.4,4.2-2.9c0.1-0.3,0.2-0.7,0.2-1V48.8z"/>
		<path class="st0" d="M142.9,45c0-1.8,0-3.3-0.1-4.7h2.8l0.2,2.9h0.1c0.9-1.7,2.9-3.3,5.8-3.3c2.4,0,6.2,1.4,6.2,7.4v10.4h-3.2v-10
			c0-2.8-1-5.1-4-5.1c-2.1,0-3.7,1.5-4.2,3.2c-0.1,0.4-0.2,0.9-0.2,1.5v10.5h-3.2V45z"/>
		<path class="st0" d="M172.6,57.7l-0.3-2.2h-0.1c-1,1.4-2.8,2.6-5.3,2.6c-3.5,0-5.3-2.5-5.3-5c0-4.2,3.7-6.5,10.5-6.5v-0.4
			c0-1.4-0.4-4-4-4c-1.6,0-3.3,0.5-4.5,1.3l-0.7-2.1c1.4-0.9,3.5-1.5,5.7-1.5c5.3,0,6.6,3.6,6.6,7.1v6.5c0,1.5,0.1,3,0.3,4.2H172.6z
			 M172.1,48.8c-3.5-0.1-7.4,0.5-7.4,3.9c0,2.1,1.4,3,3,3c2.3,0,3.7-1.4,4.2-2.9c0.1-0.3,0.2-0.7,0.2-1V48.8z"/>
		<path class="st0" d="M180.1,57.7c0.1-1.2,0.1-3,0.1-4.5V32.1h3.1v10.9h0.1c1.1-1.9,3.1-3.2,5.9-3.2c4.3,0,7.4,3.6,7.3,8.9
			c0,6.2-3.9,9.3-7.8,9.3c-2.5,0-4.5-1-5.8-3.3H183l-0.1,2.9H180.1z M183.4,50.7c0,0.4,0.1,0.8,0.1,1.2c0.6,2.2,2.4,3.7,4.8,3.7
			c3.3,0,5.3-2.7,5.3-6.7c0-3.5-1.8-6.5-5.2-6.5c-2.2,0-4.2,1.5-4.8,3.9c-0.1,0.4-0.2,0.8-0.2,1.3V50.7z"/>
		<path class="st0" d="M204.3,35.3c0,1.1-0.8,1.9-2,1.9c-1.1,0-1.9-0.9-1.9-1.9c0-1.1,0.8-2,2-2C203.5,33.4,204.3,34.2,204.3,35.3z
			 M200.8,57.7V40.2h3.2v17.4H200.8z"/>
		<path class="st0" d="M204.9,62.7c1.4-0.1,2.7-0.5,3.5-1.3c0.9-1,1.2-2.4,1.2-6.6V40.2h3.2V56c0,3.4-0.5,5.6-2.1,7.2
			c-1.4,1.4-3.7,2-5.4,2L204.9,62.7z M213.1,35.3c0,1-0.7,1.9-2,1.9c-1.2,0-1.9-0.9-1.9-1.9c0-1.1,0.8-2,2-2
			C212.4,33.4,213.1,34.2,213.1,35.3z"/>
		<path class="st0" d="M227.6,57.7l-0.3-2.2h-0.1c-1,1.4-2.8,2.6-5.3,2.6c-3.5,0-5.3-2.5-5.3-5c0-4.2,3.7-6.5,10.5-6.5v-0.4
			c0-1.4-0.4-4-4-4c-1.6,0-3.3,0.5-4.5,1.3l-0.7-2.1c1.4-0.9,3.5-1.5,5.7-1.5c5.3,0,6.6,3.6,6.6,7.1v6.5c0,1.5,0.1,3,0.3,4.2H227.6z
			 M227.1,48.8c-3.5-0.1-7.4,0.5-7.4,3.9c0,2.1,1.4,3,3,3c2.3,0,3.7-1.4,4.2-2.9c0.1-0.3,0.2-0.7,0.2-1V48.8z"/>
		<path class="st0" d="M238.4,48.2L238.4,48.2c0.5-0.6,1.1-1.4,1.6-2l5.1-6h3.8l-6.7,7.2l7.7,10.3h-3.9l-6-8.4l-1.6,1.8v6.6h-3.1
			V32.1h3.1V48.2z"/>
	</g>
</g>
</svg>
